<svg xmlns="http://www.w3.org/2000/svg" width="19.334" height="19.334" viewBox="0 0 19.334 19.334">
  <defs>
    <style>
      .cls-1 {
        fill: #4da6f1;
      }
    </style>
  </defs>
  <path id="Icon_awesome-arrow-circle-right" data-name="Icon awesome-arrow-circle-right" class="cls-1" d="M10.229.563A9.667,9.667,0,1,1,.563,10.229,9.665,9.665,0,0,1,10.229.563ZM9.1,6.16l2.943,2.822H4.928a.933.933,0,0,0-.936.936v.624a.933.933,0,0,0,.936.936h7.118L9.1,14.3a.937.937,0,0,0-.016,1.337l.429.425a.932.932,0,0,0,1.321,0l5.173-5.169a.932.932,0,0,0,0-1.321L10.838,4.394a.932.932,0,0,0-1.321,0l-.429.425A.941.941,0,0,0,9.1,6.16Z" transform="translate(-0.563 -0.563)"/>
</svg>
