<svg xmlns="http://www.w3.org/2000/svg" width="22.291" height="22.291" viewBox="0 0 22.291 22.291">
  <path id="Icon_material-local-phone" data-name="Icon material-local-phone" d="M7.919,11.857a14.307,14.307,0,0,0,6.224,6.224L16.221,16a.939.939,0,0,1,.963-.227,10.773,10.773,0,0,0,3.372.538.947.947,0,0,1,.944.944v3.3a.947.947,0,0,1-.944.944A16.054,16.054,0,0,1,4.5,5.444.947.947,0,0,1,5.444,4.5H8.75a.947.947,0,0,1,.944.944,10.729,10.729,0,0,0,.538,3.372A.948.948,0,0,1,10,9.779L7.919,11.857Z" transform="matrix(-0.391, -0.921, 0.921, -0.391, 4.258, 28.192)"/>
</svg>
