<svg xmlns="http://www.w3.org/2000/svg" width="18.72" height="18" viewBox="0 0 18.72 18">
  <path id="Icon_ionic-ios-heart-empty" data-name="Icon ionic-ios-heart-empty" d="M17.055,3.937H17.01a5.12,5.12,0,0,0-4.275,2.34A5.12,5.12,0,0,0,8.46,3.937H8.415a5.088,5.088,0,0,0-5.04,5.085,10.954,10.954,0,0,0,2.151,5.972,37.7,37.7,0,0,0,7.209,6.943,37.7,37.7,0,0,0,7.209-6.943,10.954,10.954,0,0,0,2.151-5.972A5.088,5.088,0,0,0,17.055,3.937Zm1.872,10.314a34.515,34.515,0,0,1-6.192,6.1,34.566,34.566,0,0,1-6.192-6.107A9.708,9.708,0,0,1,4.635,9.023,3.818,3.818,0,0,1,8.424,5.2h.041a3.773,3.773,0,0,1,1.849.486,3.932,3.932,0,0,1,1.368,1.282,1.264,1.264,0,0,0,2.115,0,3.971,3.971,0,0,1,1.368-1.282,3.773,3.773,0,0,1,1.85-.486h.04a3.818,3.818,0,0,1,3.789,3.82A9.831,9.831,0,0,1,18.927,14.252Z" transform="translate(-3.375 -3.938)"/>
</svg>
