<svg xmlns="http://www.w3.org/2000/svg" width="22" height="22" viewBox="0 0 22 22">
  <defs>
    <style>
      .cls-1 {
        fill: #fff;
        stroke: #000;
        stroke-width: 1.5px;
      }

      .cls-2 {
        stroke: none;
      }

      .cls-3 {
        fill: none;
      }
    </style>
  </defs>
  <g id="Group_2124" data-name="Group 2124" transform="translate(-259 -21)">
    <g id="Ellipse_593" data-name="Ellipse 593" class="cls-1" transform="translate(259 21)">
      <circle class="cls-2" cx="11" cy="11" r="11"/>
      <circle class="cls-3" cx="11" cy="11" r="10.25"/>
    </g>
    <path id="Icon_awesome-info" data-name="Icon awesome-info" d="M.531,11.263h.531V7.428H.531A.531.531,0,0,1,0,6.9V5.629A.531.531,0,0,1,.531,5.1H3.5a.531.531,0,0,1,.531.531v5.635h.531a.531.531,0,0,1,.531.531v1.268a.531.531,0,0,1-.531.531H.531A.531.531,0,0,1,0,13.063V11.794A.531.531,0,0,1,.531,11.263ZM2.549,0A1.912,1.912,0,1,0,4.46,1.912,1.912,1.912,0,0,0,2.549,0Z" transform="translate(267.568 25.182)"/>
  </g>
</svg>
