<svg xmlns="http://www.w3.org/2000/svg" width="19.069" height="23.85" viewBox="0 0 19.069 23.85">
  <defs>
    <style>
      .cls-1 {
        fill: #948f8f;
      }
    </style>
  </defs>
  <g id="Icon_ionic-ios-notifications" data-name="Icon ionic-ios-notifications" transform="translate(-6.761 -3.93)">
    <path id="Path_4652" data-name="Path 4652" class="cls-1" d="M17.477,31.5c1.854,0,2.867-1.311,2.867-3.159H14.6C14.6,30.184,15.617,31.5,17.477,31.5Z" transform="translate(-1.194 -3.715)"/>
    <path id="Path_4653" data-name="Path 4653" class="cls-1" d="M25.588,21.593c-.918-1.21-2.724-1.919-2.724-7.338,0-5.562-2.456-7.8-4.745-8.333-.215-.054-.37-.125-.37-.352V5.4a1.455,1.455,0,1,0-2.909,0V5.57c0,.221-.155.3-.37.352-2.295.542-4.745,2.772-4.745,8.333,0,5.419-1.806,6.122-2.724,7.338a1.183,1.183,0,0,0,.948,1.9h16.7A1.183,1.183,0,0,0,25.588,21.593Z" transform="translate(0 0)"/>
  </g>
</svg>
