<svg xmlns="http://www.w3.org/2000/svg" width="254" height="48" viewBox="0 0 254 48">
  <defs>
    <style>
      .cls-1, .cls-2 {
        fill: #fff;
      }

      .cls-1 {
        font-size: 14px;
        font-family: Montserrat-Regular, Montserrat;
      }
    </style>
  </defs>
  <g id="Group_2112" data-name="Group 2112" transform="translate(-60 -435)">
    <rect id="Rectangle_1114" data-name="Rectangle 1114" width="254" height="48" rx="24" transform="translate(60 435)"/>
    <text id="sign_in_with_Apple" data-name="sign in with Apple" class="cls-1" transform="translate(134 466)"><tspan x="0" y="0">sign in with Apple</tspan></text>
    <path id="Icon_awesome-apple" data-name="Icon awesome-apple" class="cls-2" d="M14.333,12.819a4.168,4.168,0,0,1,2.233-3.786,4.8,4.8,0,0,0-3.782-1.991c-1.585-.125-3.318.924-3.952.924-.67,0-2.206-.88-3.411-.88C2.929,7.126.281,9.073.281,13.033a11.129,11.129,0,0,0,.643,3.626c.572,1.639,2.634,5.657,4.787,5.59,1.125-.027,1.92-.8,3.385-.8,1.42,0,2.157.8,3.411.8,2.17-.031,4.036-3.684,4.581-5.327a4.426,4.426,0,0,1-2.755-4.1ZM11.806,5.487A4.205,4.205,0,0,0,12.877,2.25,4.735,4.735,0,0,0,9.845,3.808,4.271,4.271,0,0,0,8.7,7.019,3.75,3.75,0,0,0,11.806,5.487Z" transform="translate(85.719 446.297)"/>
  </g>
</svg>
