<svg xmlns="http://www.w3.org/2000/svg" width="273" height="245" viewBox="0 0 273 245">
  <defs>
    <style>
      .cls-1 {
        fill: #eba225;
      }

      .cls-2 {
        fill: #fff;
      }
    </style>
  </defs>
  <g id="Group_2136" data-name="Group 2136" transform="translate(-56 -171)">
    <rect id="Rectangle_1052" data-name="Rectangle 1052" class="cls-1" width="273" height="245" rx="12" transform="translate(56 171)"/>
    <path id="Icon_awesome-shopping-cart" data-name="Icon awesome-shopping-cart" class="cls-2" d="M82.519,47.081l7.386-32.5A3.75,3.75,0,0,0,86.248,10H24.876L23.444,3A3.75,3.75,0,0,0,19.77,0H3.75A3.75,3.75,0,0,0,0,3.75v2.5A3.75,3.75,0,0,0,3.75,10H14.669L25.645,63.662A8.751,8.751,0,1,0,36.121,65H68.879a8.748,8.748,0,1,0,9.937-1.626l.862-3.793A3.75,3.75,0,0,0,76.021,55H34.081l-1.023-5h45.8A3.75,3.75,0,0,0,82.519,47.081Z" transform="translate(143 254)"/>
  </g>
</svg>
