<svg xmlns="http://www.w3.org/2000/svg" width="90" height="80" viewBox="0 0 90 80">
  <defs>
    <style>
      .cls-1 {
        fill: #fff;
      }
    </style>
  </defs>
  <path id="Icon_awesome-shopping-cart" data-name="Icon awesome-shopping-cart" class="cls-1" d="M82.519,47.081l7.386-32.5A3.75,3.75,0,0,0,86.248,10H24.876L23.444,3A3.75,3.75,0,0,0,19.77,0H3.75A3.75,3.75,0,0,0,0,3.75v2.5A3.75,3.75,0,0,0,3.75,10H14.669L25.645,63.662A8.751,8.751,0,1,0,36.121,65H68.879a8.748,8.748,0,1,0,9.937-1.626l.862-3.793A3.75,3.75,0,0,0,76.021,55H34.081l-1.023-5h45.8A3.75,3.75,0,0,0,82.519,47.081Z"/>
</svg>
